# xmcd
#
# Track frame offsets: 
#        182
#        16907
#        35732
#        57132
#        72857
#        90182
#        109382
#        129557
#        145907
#        160507
#        177332
#        195882
#        213532
#        233557
#
# Disc length: 3428 seconds
#
# Revision: 3
# Processed by: cddbd v1.5.2PL0 Copyright (c) Steve Scherf et al.
# Submitted via: ExactAudioCopy v1.0b3
#
DISCID=b40d620e
DTITLE=Various Artist - SuperSanremo '95 [CD1)
DYEAR=1995
DGENRE=
TTITLE0=Gigliola Cinquetti - Giovane Vecchio Cuore
TTITLE1=Massimo Di Cataldo - Che Sarà Di Me
TTITLE2=Mango - Dove Vai
TTITLE3=Neri Per Caso - Le Ragazze
TTITLE4=Gianluca Grignani - Destinazione Paradiso
TTITLE5=Sabina Guzzanti E La Riserva Indiana - Troppo Sole
TTITLE6=Toto Cutugno - Voglio Andare A Vivere In Campagna
TTITLE7=Patty Pravo - I Giorni Dell'Armonia
TTITLE8=Trio Melody (Gigi Proietti, Peppino Di Capri, Stefano Palatres
TTITLE8=i) - Ma Che Ne Sai... (...Se Non Hai Fatto Il Piano Bar)
TTITLE9=Fabrizio Consoli - Quando Saprai
TTITLE10=Loredana Bertè - ANGELI and Angeli
TTITLE11=Cyndi Lauper - Hey Now (Girls Just Want To Have Fun)
TTITLE12=Noa - Child Of Man (Based On A Chinese Haiku)
TTITLE13=Robbie Robertson and The Red Road Ensemble - Ghost Dance
EXTD=
EXTT0=
EXTT1=
EXTT2=
EXTT3=
EXTT4=
EXTT5=
EXTT6=
EXTT7=
EXTT8=
EXTT9=
EXTT10=
EXTT11=
EXTT12=
EXTT13=
PLAYORDER=
